# xmcd CD database file
#
# Track frame offsets:
#	150
#	22686
#	41493
#	61740
#	79515
#	102629
#	119177
#	133493
#	150817
#	162756
#	186745
#
# Disc length: 2743 seconds
#
# Revision: 0
# Processed by: cddbd v1.5.2PL0 Copyright (c) Steve Scherf et al.
# Submitted via: CDex 1.51
#
DISCID=8d0ab50b
DTITLE=77's - Holy Ghost Building
DYEAR=2008
DGENRE=Blues
TTITLE0=I'm Working On A Building
TTITLE1=Keep Your Lamps Trimmed and Burning
TTITLE2=Stranger Won't You Change Your Sinful Ways
TTITLE3=I'll Remember You, Love, In My Prayers
TTITLE4=You're Gonna Be Sorry
TTITLE5=What Would You Give In Exchange For Your Soul
TTITLE6=He's A Mighty Good Leader
TTITLE7=When My Blue Moon Turns To Gold Again
TTITLE8=Everybody Ought To Pray Sometime
TTITLE9=I'm Gonna Run To The City Of Refuge
TTITLE10=A Lifetime Without You
EXTD=YEAR: 2008
EXTT0=
EXTT1=
EXTT2=
EXTT3=
EXTT4=
EXTT5=
EXTT6=
EXTT7=
EXTT8=
EXTT9=
EXTT10=
PLAYORDER=
